<mxfile host="app.diagrams.net" modified="2023-11-14T12:37:13.319Z" agent="Mozilla/5.0 (Macintosh; Intel Mac OS X 10_15_7) AppleWebKit/537.36 (KHTML, like Gecko) Chrome/118.0.0.0 Safari/537.36" etag="OEGr6nwHge6JeWXR3xwf" version="22.1.0" type="github">
  <diagram name="Page-1" id="LzVPZ3oxSGh7zD29kF9I">
    <mxGraphModel dx="1122" dy="684" grid="1" gridSize="10" guides="1" tooltips="1" connect="1" arrows="1" fold="1" page="1" pageScale="1" pageWidth="827" pageHeight="1169" math="0" shadow="0">
      <root>
        <mxCell id="0" />
        <mxCell id="1" parent="0" />
        <mxCell id="DAecCU17Xr3ylwO8C8Ry-10" value="" style="edgeStyle=orthogonalEdgeStyle;rounded=0;orthogonalLoop=1;jettySize=auto;html=1;" edge="1" parent="1" source="DAecCU17Xr3ylwO8C8Ry-2" target="DAecCU17Xr3ylwO8C8Ry-9">
          <mxGeometry relative="1" as="geometry" />
        </mxCell>
        <mxCell id="DAecCU17Xr3ylwO8C8Ry-2" value="PROCESS in jupyter notebooks" style="rounded=0;whiteSpace=wrap;html=1;" vertex="1" parent="1">
          <mxGeometry x="330" y="330" width="120" height="60" as="geometry" />
        </mxCell>
        <mxCell id="DAecCU17Xr3ylwO8C8Ry-6" style="edgeStyle=orthogonalEdgeStyle;rounded=0;orthogonalLoop=1;jettySize=auto;html=1;entryX=0;entryY=0.5;entryDx=0;entryDy=0;" edge="1" parent="1" source="DAecCU17Xr3ylwO8C8Ry-3" target="DAecCU17Xr3ylwO8C8Ry-2">
          <mxGeometry relative="1" as="geometry" />
        </mxCell>
        <mxCell id="DAecCU17Xr3ylwO8C8Ry-3" value="RFP - template" style="rounded=0;whiteSpace=wrap;html=1;" vertex="1" parent="1">
          <mxGeometry x="140" y="140" width="120" height="60" as="geometry" />
        </mxCell>
        <mxCell id="DAecCU17Xr3ylwO8C8Ry-7" style="edgeStyle=orthogonalEdgeStyle;rounded=0;orthogonalLoop=1;jettySize=auto;html=1;entryX=0;entryY=0.5;entryDx=0;entryDy=0;" edge="1" parent="1" source="DAecCU17Xr3ylwO8C8Ry-4" target="DAecCU17Xr3ylwO8C8Ry-2">
          <mxGeometry relative="1" as="geometry">
            <mxPoint x="330" y="280" as="targetPoint" />
          </mxGeometry>
        </mxCell>
        <mxCell id="DAecCU17Xr3ylwO8C8Ry-4" value="RFI - template" style="rounded=0;whiteSpace=wrap;html=1;" vertex="1" parent="1">
          <mxGeometry x="140" y="250" width="120" height="60" as="geometry" />
        </mxCell>
        <mxCell id="DAecCU17Xr3ylwO8C8Ry-8" style="edgeStyle=orthogonalEdgeStyle;rounded=0;orthogonalLoop=1;jettySize=auto;html=1;entryX=0;entryY=0.5;entryDx=0;entryDy=0;" edge="1" parent="1" source="DAecCU17Xr3ylwO8C8Ry-5" target="DAecCU17Xr3ylwO8C8Ry-2">
          <mxGeometry relative="1" as="geometry" />
        </mxCell>
        <mxCell id="DAecCU17Xr3ylwO8C8Ry-5" value="Opportunity list database" style="rounded=0;whiteSpace=wrap;html=1;" vertex="1" parent="1">
          <mxGeometry x="140" y="370" width="120" height="60" as="geometry" />
        </mxCell>
        <mxCell id="DAecCU17Xr3ylwO8C8Ry-9" value="Generate documents" style="rounded=0;whiteSpace=wrap;html=1;" vertex="1" parent="1">
          <mxGeometry x="510" y="330" width="120" height="60" as="geometry" />
        </mxCell>
        <mxCell id="DAecCU17Xr3ylwO8C8Ry-14" style="edgeStyle=orthogonalEdgeStyle;rounded=0;orthogonalLoop=1;jettySize=auto;html=1;entryX=0;entryY=0.5;entryDx=0;entryDy=0;" edge="1" parent="1" source="DAecCU17Xr3ylwO8C8Ry-13" target="DAecCU17Xr3ylwO8C8Ry-2">
          <mxGeometry relative="1" as="geometry" />
        </mxCell>
        <mxCell id="DAecCU17Xr3ylwO8C8Ry-13" value="Template report" style="rounded=0;whiteSpace=wrap;html=1;" vertex="1" parent="1">
          <mxGeometry x="140" y="490" width="120" height="60" as="geometry" />
        </mxCell>
        <mxCell id="DAecCU17Xr3ylwO8C8Ry-15" value="Huggin face" style="text;html=1;strokeColor=none;fillColor=none;align=center;verticalAlign=middle;whiteSpace=wrap;rounded=0;" vertex="1" parent="1">
          <mxGeometry x="540" y="460" width="60" height="30" as="geometry" />
        </mxCell>
      </root>
    </mxGraphModel>
  </diagram>
</mxfile>
